<?xml version="1.0" encoding="utf-8"?>
<!-- Generator: Adobe Illustrator 14.0.0, SVG Export Plug-In . SVG Version: 6.00 Build 43363)  -->
<!DOCTYPE svg PUBLIC "-//W3C//DTD SVG 1.1//EN" "http://www.w3.org/Graphics/SVG/1.1/DTD/svg11.dtd">
<svg version="1.1" id="Layer_1" xmlns="http://www.w3.org/2000/svg" xmlns:xlink="http://www.w3.org/1999/xlink" x="0px" y="0px"
	 width="512px" height="512px" viewBox="0 0 512 512" style="enable-background:new 0 0 512 512;" xml:space="preserve">
<path style="fill-rule:evenodd;clip-rule:evenodd;fill:#61DAFB;" d="M259.457,302.09c22.743-2.16,42.848-21.255,43.557-44.552
	c0.845-27.8-24.614-50.044-52.014-47.038c-26.245,2.879-44.865,25.396-40.756,51.928C213.919,286.162,235.23,304.392,259.457,302.09
	z"/>
<path style="fill-rule:evenodd;clip-rule:evenodd;fill:#61DAFB;" d="M92.109,330.791c38.087,15.614,80.058,22.156,120.937,25.153
	c43.073,3.157,86.676,1.724,129.364-4.948c36.624-5.726,72.108-15.754,105.46-32.136c26.601-13.065,58.991-38.018,52.864-71.691
	c-7.388-37.945-52.563-55.225-84.124-67.718c-38.315-15.167-79.757-21.81-120.687-24.6c-76.194-5.194-153.658,3.049-223.85,34.308
	C44,201.66,5.898,225.057,10.726,261.236C15.876,299.831,60.99,318.034,92.109,330.791z M381.5,192.5
	c17.861,4.66,35.577,10.862,52.201,18.931c15.759,7.649,42.344,22.046,45.149,41.523c2.799,19.437-21.008,32.405-34.851,40.545
	c-33.263,19.563-73.593,31.727-112,36c7.424-13.439,15.427-26.559,22.965-39.935c3.961-7.027,7.891-14.088,11.463-21.324
	c1.637-3.316,4.87-8.237,4.559-12.139c-0.366-4.586-3.19-9.415-5.119-13.474c-3.505-7.375-7.361-14.586-11.316-21.728
	c-7.214-13.026-14.505-26.524-23.551-38.4C348.02,182.907,365.091,188.22,381.5,192.5z M211,178.5
	c2.159-0.122,4.316-0.255,6.474-0.396c4.147-0.269,8.292-0.563,12.439-0.831c9.539-0.617,19.086-1.033,28.648-0.984
	c9.549,0.05,19.152,0.206,28.694,0.591c7.142,0.288,12.796,0.855,17.723,6.384c9.713,10.902,15.95,25.503,22.992,38.202
	c4.854,8.753,9.319,17.71,13.808,26.654c1.068,2.129,2.14,4.257,3.222,6.379c-0.922,2.379-1.883,4.744-2.88,7.093
	c-2.282,5.375-4.758,10.668-7.389,15.881c-8.029,15.905-17.52,31-27.191,45.944c-2.177,3.362-4.361,6.72-6.54,10.081
	c-5.072,0.239-10.14,0.559-15.207,0.868c-9.588,0.586-19.185,1.132-28.793,1.132c-8.865,0-17.711,0.833-26.579,0.696
	c-7.165-0.11-15.938-0.31-21.484-5.494c-10.311-9.638-15.333-24.5-22.269-36.51c-5.087-8.81-10.223-17.608-14.723-26.738
	c-1.948-3.952-5.749-9.139-3.924-13.322c2.376-5.451,4.909-10.833,7.574-16.148c9.256-18.462,20.118-36.049,31.382-53.34
	C208.313,182.593,209.655,180.546,211,178.5z M37.012,243.365C54.419,216.167,90.186,207.168,118,195.5
	c6.942-2.134,28.026-7.357,37.51-9.157c6.132-1.164,15.49-3.51,24.49-4.843c-5.723,12.818-13.579,24.854-20.506,37.036
	c-4.032,7.091-8.052,14.195-11.841,21.419c-2.394,4.563-5.54,9.599-6.552,14.727c-0.71,3.593,2.214,8.297,3.658,11.376
	c3.56,7.589,7.601,14.957,11.667,22.283C164.1,302.168,172.238,315.726,180,329.5c-12.827-1.436-25.33-4.66-38-7
	c-20.968-6.382-42.292-11.866-61.935-21.814C61.57,291.318,20.205,269.626,37.012,243.365z"/>
<path style="fill-rule:evenodd;clip-rule:evenodd;fill:#61DAFB;" d="M329.858,143.12c4.047,0.579,8.388,2.589,12.535,1.502
	c2.51-0.657,3.832-10.552,4.806-13.035c2.239-5.716,5.006-11.223,7.946-16.606c9.48-17.356,20.753-33.885,32.713-49.625
	c-9.263-0.454-20.515-1.355-29.283,2.126c-8.503,3.375-14.26,15.486-18.317,22.945c-8.988,16.524-16.177,34.189-22.399,51.929
	C321.822,142.608,325.929,142.558,329.858,143.12z"/>
<path style="fill-rule:evenodd;clip-rule:evenodd;fill:#61DAFB;" d="M219.358,137.12c4.046,0.579,8.387,2.589,12.535,1.502
	c2.51-0.657,3.833-10.552,4.806-13.035c2.24-5.716,5.006-11.223,7.947-16.606c9.48-17.356,20.752-33.885,32.712-49.625
	c-9.263-0.454-20.515-1.355-29.283,2.126c-8.502,3.375-14.26,15.486-18.317,22.945c-8.988,16.524-16.177,34.189-22.399,51.929
	C211.322,136.608,215.429,136.558,219.358,137.12z"/>
<path style="fill-rule:evenodd;clip-rule:evenodd;fill:#61DAFB;" d="M121.394,158.284c2.51-0.657,3.833-10.552,4.806-13.035
	c2.24-5.716,5.006-11.223,7.947-16.606c9.48-17.356,20.752-33.885,32.712-49.625c-9.263-0.454-20.515-1.355-29.283,2.126
	c-8.502,3.375-14.26,15.486-18.317,22.945c-8.988,16.524-16.177,34.189-22.399,51.929c3.964,0.252,8.07,0.202,12,0.764
	C112.905,157.359,117.246,159.371,121.394,158.284z"/>
<path style="fill-rule:evenodd;clip-rule:evenodd;fill:#61DAFB;" d="M385.108,153.787c4.047,0.579,8.388,2.59,12.535,1.503
	c2.51-0.658,3.832-10.552,4.806-13.035c2.239-5.716,5.006-11.223,7.946-16.606c9.48-17.356,20.753-33.885,32.713-49.625
	c-9.263-0.454-20.515-1.355-29.283,2.126c-8.503,3.375-14.26,15.486-18.317,22.945c-8.988,16.524-16.177,34.189-22.399,51.929
	C377.072,153.275,381.179,153.225,385.108,153.787z"/>
<path style="fill-rule:evenodd;clip-rule:evenodd;fill:#61DAFB;" d="M274.608,137.12c4.047,0.579,8.388,2.589,12.535,1.502
	c2.51-0.657,3.832-10.552,4.806-13.035c2.239-5.716,5.006-11.223,7.946-16.606c9.48-17.356,20.753-33.885,32.713-49.625
	c-9.263-0.454-20.515-1.355-29.283,2.126c-8.503,3.375-14.26,15.486-18.317,22.945c-8.988,16.524-16.177,34.189-22.399,51.929
	C266.572,136.608,270.679,136.558,274.608,137.12z"/>
<path style="fill-rule:evenodd;clip-rule:evenodd;fill:#61DAFB;" d="M164.108,143.12c4.046,0.579,8.387,2.59,12.535,1.503
	c2.51-0.658,3.833-10.552,4.806-13.035c2.24-5.716,5.006-11.223,7.947-16.606c9.48-17.356,20.752-33.885,32.712-49.625
	c-9.263-0.454-20.515-1.355-29.283,2.126c-8.502,3.375-14.26,15.486-18.317,22.945c-8.988,16.524-16.177,34.189-22.399,51.929
	C156.072,142.608,160.179,142.558,164.108,143.12z"/>
</svg>
